<svg width="19" height="17" viewBox="0 0 19 17" fill="none" xmlns="http://www.w3.org/2000/svg">
<path d="M9.1869 0C4.11377 0 0 3.90185 0 8.71517C0 12.5658 2.63232 15.8326 6.28259 16.985C6.7417 17.0657 6.9103 16.796 6.9103 16.5658C6.9103 16.358 6.90172 15.6714 6.89783 14.9432C4.34196 15.4704 3.80265 13.9149 3.80265 13.9149C3.38476 12.9075 2.78262 12.6397 2.78262 12.6397C1.94913 12.0988 2.84545 12.1099 2.84545 12.1099C3.768 12.1714 4.25377 13.008 4.25377 13.008C5.07313 14.3404 6.40291 13.9551 6.92716 13.7325C7.00959 13.1692 7.24771 12.7848 7.51041 12.5671C5.46992 12.3467 3.32481 11.5994 3.32481 8.26002C3.32481 7.30856 3.6837 6.53106 4.27142 5.92075C4.17602 5.70121 3.86159 4.81482 4.3604 3.61436C4.3604 3.61436 5.13186 3.38012 6.88746 4.50772C7.62022 4.31456 8.40616 4.21777 9.1869 4.21449C9.96765 4.21777 10.7542 4.31456 11.4884 4.50772C13.2419 3.38012 14.0123 3.61436 14.0123 3.61436C14.5123 4.81482 14.1977 5.70121 14.1023 5.92075C14.6913 6.53106 15.0478 7.30849 15.0478 8.26002C15.0478 11.6073 12.8986 12.3444 10.8529 12.5602C11.1824 12.8306 11.476 13.361 11.476 14.1741C11.476 15.3401 11.4654 16.2787 11.4654 16.5658C11.4654 16.7977 11.6307 17.0694 12.0965 16.9839C15.7447 15.8302 18.3737 12.5645 18.3737 8.71517C18.3737 3.90185 14.2605 0 9.1869 0Z" fill="white"/>
<path d="M3.2141 12.4223C3.19526 12.4656 3.12809 12.4786 3.06704 12.4489C3.00478 12.4204 2.96979 12.3613 2.98998 12.3179C3.00849 12.2733 3.07566 12.2608 3.13778 12.2908C3.20017 12.3192 3.23571 12.3788 3.2141 12.4223ZM3.63623 12.805C3.59531 12.8436 3.51529 12.8257 3.46097 12.7647C3.40484 12.7039 3.39434 12.6227 3.43587 12.5835C3.47807 12.545 3.55567 12.563 3.61194 12.6238C3.66807 12.6853 3.67904 12.766 3.63623 12.805ZM3.92585 13.2947C3.87321 13.3318 3.7872 13.297 3.73409 13.2195C3.68153 13.142 3.68153 13.049 3.73524 13.0117C3.78854 12.9744 3.87321 13.0079 3.92706 13.0849C3.97955 13.1637 3.97962 13.2567 3.92585 13.2947ZM4.41555 13.8619C4.36851 13.9145 4.26836 13.9004 4.195 13.8285C4.12002 13.7582 4.09909 13.6584 4.14627 13.6057C4.19385 13.5529 4.29461 13.5677 4.36851 13.639C4.44301 13.7092 4.46569 13.8098 4.41555 13.8619ZM5.04848 14.0534C5.02782 14.1216 4.93131 14.1527 4.83412 14.1237C4.73707 14.0938 4.67353 14.0138 4.69312 13.9448C4.71331 13.876 4.81023 13.8437 4.90815 13.8747C5.00507 13.9045 5.06867 13.9839 5.04848 14.0534ZM5.76891 14.1345C5.77133 14.2065 5.68888 14.2661 5.58685 14.2674C5.48421 14.2697 5.40123 14.2115 5.40015 14.1408C5.40015 14.0681 5.48071 14.009 5.58328 14.0073C5.68532 14.0053 5.76891 14.0631 5.76891 14.1345ZM6.47655 14.107C6.4888 14.1772 6.41786 14.2492 6.31657 14.2684C6.21695 14.2869 6.12475 14.2436 6.11203 14.174C6.09964 14.1021 6.17193 14.03 6.27134 14.0114C6.37283 13.9935 6.46363 14.0356 6.47655 14.107Z" fill="white"/>
</svg>
